<?xml version="1.0" standalone="no"?>
<!DOCTYPE svg PUBLIC "-//W3C//DTD SVG 20010904//EN"
 "http://www.w3.org/TR/2001/REC-SVG-20010904/DTD/svg10.dtd">
<svg version="1.0" xmlns="http://www.w3.org/2000/svg"
 width="820.000000pt" height="820.000000pt" viewBox="0 0 820.000000 820.000000"
 preserveAspectRatio="xMidYMid meet">
<metadata>
Created by potrace 1.14, written by Peter Selinger 2001-2017
</metadata>
<g transform="translate(0.000000,820.000000) scale(0.100000,-0.100000)"
fill="#000000" stroke="none">
<path d="M2277 7524 c-1 -2 -86 -6 -187 -9 -253 -9 -478 -19 -615 -30 -33 -2
-91 -7 -130 -9 -38 -3 -94 -8 -123 -11 -28 -3 -80 -8 -115 -11 -34 -4 -73 -8
-87 -9 -14 -2 -30 -3 -36 -4 -6 -1 -16 -34 -22 -73 -6 -40 -14 -84 -17 -98 -5
-24 -22 -118 -30 -168 -2 -12 -6 -30 -9 -40 -3 -9 -7 -33 -10 -52 -3 -19 -8
-46 -11 -60 -6 -31 -25 -131 -31 -167 -2 -16 -9 -48 -14 -73 -5 -25 -12 -62
-15 -82 -2 -21 -10 -59 -15 -84 -6 -26 -13 -59 -15 -73 -2 -14 -6 -42 -9 -61
-3 -19 -9 -48 -12 -65 -4 -16 -8 -37 -10 -45 -5 -40 -16 -97 -19 -110 -3 -8
-7 -32 -11 -54 -3 -21 -8 -48 -10 -60 -2 -11 -7 -34 -9 -51 -3 -16 -8 -37 -10
-45 -2 -8 -7 -31 -10 -50 -3 -19 -10 -57 -15 -85 -5 -27 -12 -63 -15 -80 -5
-28 -26 -144 -61 -330 -8 -44 -19 -102 -24 -130 -5 -27 -11 -59 -13 -70 -3
-11 -8 -40 -12 -65 -4 -25 -9 -54 -12 -65 -2 -11 -6 -35 -9 -54 -2 -19 -6 -37
-8 -40 -3 -4 -7 -25 -10 -47 -6 -39 -11 -64 -21 -114 -2 -14 -7 -38 -10 -55
-3 -16 -7 -41 -10 -55 -3 -14 -12 -61 -20 -105 -19 -107 -25 -135 -30 -165
-16 -78 -15 -73 -32 -170 -3 -19 -7 -44 -10 -55 -14 -69 -35 -185 -38 -210 -2
-16 -4 -30 -5 -30 -2 0 -6 -19 -15 -70 -18 -107 -23 -130 -25 -130 -1 0 -3
-15 -6 -34 -2 -19 -6 -44 -8 -55 -9 -41 -67 -352 -72 -386 -4 -19 -7 -39 -9
-45 -2 -12 -13 -68 -20 -110 -5 -28 -16 -85 -30 -160 -3 -16 -10 -52 -15 -80
-6 -27 -13 -63 -15 -80 -3 -16 -10 -55 -16 -85 -5 -30 -12 -68 -15 -85 -2 -16
-9 -50 -14 -75 -6 -25 -12 -58 -15 -75 -2 -16 -14 -79 -25 -140 -25 -134 -31
-164 -33 -190 -2 -20 4 -20 854 -21 636 -2 856 1 856 10 0 6 3 25 7 41 3 17 8
40 10 51 2 12 7 37 10 55 3 19 8 45 11 59 3 14 8 39 10 55 5 25 16 87 20 105
1 3 5 25 9 50 5 25 10 54 13 65 2 11 7 34 9 50 3 17 12 64 20 105 8 41 17 86
20 100 2 14 9 48 14 75 5 28 12 66 15 85 3 19 8 42 10 50 2 8 6 28 9 44 3 16
10 52 15 80 6 28 13 65 15 81 3 17 10 50 15 75 5 25 12 61 15 81 3 20 8 42 10
50 3 8 7 30 10 49 3 19 8 46 11 60 11 55 26 136 30 160 2 14 13 71 24 128 12
56 23 117 26 135 3 17 10 55 15 82 5 28 12 61 14 75 3 14 5 26 7 28 2 3 4 12
13 67 7 45 40 222 66 350 5 28 12 63 14 79 3 16 10 53 16 83 6 29 13 65 15 80
2 16 4 28 5 28 2 0 7 25 15 75 4 24 8 47 10 50 2 3 6 27 9 54 3 26 8 51 11 56
3 4 7 27 10 50 3 24 8 46 10 50 3 4 7 23 9 42 3 18 12 74 21 123 10 50 19 101
21 115 3 14 7 32 9 40 2 8 7 31 10 50 3 19 12 67 20 105 8 39 17 88 21 110 3
22 7 42 9 45 2 3 6 26 10 50 7 51 29 160 50 260 3 14 7 42 9 62 2 20 6 40 9
45 3 4 8 30 11 57 4 27 9 52 11 55 1 3 6 22 9 41 8 49 16 91 21 120 3 14 7 34
9 45 35 184 46 242 50 260 2 6 6 32 11 58 4 27 13 51 20 53 20 8 315 10 315 2
0 -4 6 -5 14 -2 8 3 41 0 73 -7 32 -7 63 -13 68 -14 6 -1 13 -3 18 -5 4 -1 10
-3 15 -5 4 -1 16 -5 27 -9 157 -61 262 -156 331 -300 24 -50 45 -100 47 -111
2 -11 7 -27 10 -35 39 -96 51 -455 23 -640 -3 -19 -8 -51 -10 -71 -12 -99 -66
-268 -118 -374 -174 -350 -529 -532 -1060 -544 l-37 -1 5 -77 c7 -146 22 -340
29 -396 4 -23 8 -60 10 -82 12 -116 20 -169 46 -310 9 -48 11 -60 24 -135 3
-19 8 -43 11 -52 7 -23 14 -58 20 -98 3 -19 8 -42 12 -50 5 -13 32 -112 47
-172 11 -46 99 -297 131 -375 65 -160 203 -428 256 -498 4 -5 36 -48 70 -95
99 -134 196 -236 307 -324 81 -64 103 -76 291 -166 16 -8 78 -23 82 -20 2 1
16 -4 32 -10 88 -33 358 -34 525 -1 123 25 273 91 365 160 61 47 136 118 136
131 0 3 8 15 18 26 46 49 165 276 151 287 -2 2 -30 18 -61 36 -32 18 -84 53
-115 79 -92 73 -236 225 -267 281 -5 9 -12 18 -16 21 -11 8 -124 180 -151 230
-13 25 -26 47 -29 50 -19 17 -200 391 -200 411 0 5 -5 17 -10 27 -38 66 -145
400 -191 597 -33 140 -33 133 14 145 108 28 159 44 242 77 50 19 99 40 110 46
11 6 22 12 25 12 13 4 58 27 85 45 17 11 37 23 45 27 16 7 122 78 153 103 136
107 310 304 364 409 10 20 21 38 24 41 6 5 21 43 19 48 0 1 6 10 15 18 8 9 15
23 15 33 0 9 5 22 12 29 6 6 13 17 14 24 1 7 14 47 29 88 30 83 29 79 50 170
38 166 49 278 48 490 -2 319 -88 572 -263 774 -50 58 -145 146 -157 146 -7 0
-13 4 -13 9 0 5 -24 24 -52 42 -29 18 -55 36 -58 40 -8 10 -210 109 -210 102
0 -3 -6 -1 -12 5 -13 10 -146 60 -182 67 -11 3 -40 11 -65 19 -42 14 -91 26
-161 40 -14 2 -50 10 -80 16 -30 6 -71 13 -90 16 -19 3 -48 8 -65 10 -38 7
-64 10 -145 18 -36 4 -82 9 -102 12 -99 13 -263 17 -721 19 -273 1 -498 0
-500 -1z"/>
<path d="M6450 7405 c-7 -33 -14 -69 -16 -80 -2 -11 -6 -32 -9 -47 -3 -16 -7
-40 -10 -55 -3 -16 -7 -39 -10 -53 -3 -14 -9 -50 -15 -80 -6 -30 -12 -66 -15
-80 -13 -62 -26 -127 -30 -150 -6 -36 -14 -76 -30 -160 -3 -14 -8 -40 -11 -59
-3 -18 -8 -43 -10 -55 -3 -11 -9 -43 -14 -71 -6 -27 -12 -61 -15 -75 -3 -14
-8 -41 -11 -60 -4 -19 -8 -44 -11 -55 -2 -11 -8 -42 -13 -70 -6 -27 -12 -61
-15 -75 -3 -14 -8 -41 -11 -60 -3 -19 -7 -41 -10 -49 -2 -8 -7 -30 -10 -50 -8
-45 -12 -66 -14 -66 -1 0 -3 -15 -6 -33 -2 -17 -10 -65 -19 -105 -8 -39 -17
-85 -20 -102 -2 -16 -7 -39 -9 -50 -2 -11 -18 -94 -36 -185 -31 -163 -66 -341
-75 -390 -3 -14 -8 -41 -11 -60 -3 -19 -10 -54 -15 -78 -5 -23 -12 -59 -15
-78 -3 -20 -8 -46 -11 -58 -2 -11 -6 -31 -8 -43 -2 -12 -6 -34 -9 -50 -4 -15
-9 -39 -11 -53 -3 -14 -7 -36 -10 -50 -3 -14 -8 -38 -10 -55 -3 -16 -7 -41
-10 -55 -3 -14 -7 -36 -10 -50 -2 -14 -9 -45 -14 -70 -5 -25 -13 -63 -17 -85
-4 -22 -8 -44 -10 -50 -1 -5 -5 -28 -9 -50 -4 -22 -13 -74 -22 -115 -8 -41
-17 -85 -19 -97 -2 -13 -6 -33 -8 -45 -8 -47 -19 -104 -23 -123 -2 -11 -6 -31
-9 -45 -2 -14 -7 -38 -11 -55 -4 -16 -8 -37 -9 -45 -2 -8 -6 -31 -10 -50 -3
-19 -8 -44 -10 -55 -2 -18 -21 -114 -29 -155 -2 -8 -4 -15 -5 -15 -1 0 -3 -9
-4 -20 -2 -11 -9 -47 -15 -80 -7 -33 -14 -71 -17 -85 -2 -14 -11 -56 -20 -95
-8 -38 -17 -81 -19 -95 -13 -82 -133 -559 -175 -695 -17 -55 -33 -109 -35
-120 -6 -27 -83 -255 -95 -280 -19 -43 -60 -152 -60 -163 0 -7 -4 -12 -10 -12
-5 0 -10 -7 -10 -15 0 -24 -106 -221 -164 -305 -50 -73 -183 -220 -199 -220
-4 0 -18 -9 -30 -21 -35 -33 -177 -97 -245 -110 -70 -13 -72 -18 -25 -92 38
-60 171 -179 197 -176 5 0 12 -4 15 -9 3 -5 38 -26 78 -46 74 -38 219 -80 321
-93 75 -10 362 -10 432 0 122 17 225 39 325 70 39 12 72 22 75 22 3 1 14 5 25
10 314 128 544 330 740 646 49 79 172 306 173 319 0 3 12 32 27 65 14 33 30
69 34 80 5 11 14 34 21 50 17 42 97 267 120 340 20 61 64 206 65 215 1 3 9 32
19 65 10 33 19 67 21 75 2 8 8 35 15 60 7 25 13 52 15 60 2 8 10 42 18 75 9
33 18 72 21 87 2 15 7 31 9 36 4 6 63 280 72 332 1 8 6 33 10 55 4 22 9 48 11
58 2 10 5 26 8 35 3 9 7 34 11 56 3 21 7 41 9 45 2 3 7 26 10 51 4 25 11 63
16 85 5 22 7 41 5 44 -2 2 0 11 4 20 5 9 12 37 15 63 4 26 8 53 11 60 2 7 6
30 9 50 3 21 10 57 15 80 6 24 13 59 16 78 3 19 12 67 20 105 17 84 23 119 31
165 3 19 8 44 11 55 3 11 7 29 9 40 2 11 6 34 9 50 3 17 8 40 10 52 2 13 11
58 19 100 9 43 18 90 20 105 3 15 12 63 20 105 9 43 18 89 20 103 3 14 8 39
11 55 3 17 10 53 15 80 5 28 12 61 15 75 3 14 7 39 10 55 6 40 14 82 24 125 5
19 9 42 9 50 0 8 3 26 7 40 4 14 8 34 10 45 4 24 14 79 30 155 3 14 9 50 15
80 6 30 12 66 15 80 3 14 9 48 15 75 5 28 12 61 15 75 3 14 7 39 10 55 3 17
10 53 15 80 6 28 12 59 14 70 2 11 21 108 41 215 21 107 39 202 40 210 1 8 5
26 8 40 4 14 8 39 11 55 4 27 18 100 31 165 3 14 8 40 11 59 7 40 10 58 18 91
3 14 8 37 10 53 3 15 7 35 10 45 3 9 7 35 11 57 3 22 7 47 10 55 2 8 6 31 9
50 3 19 15 78 26 130 10 52 17 97 14 99 -3 3 -394 6 -869 6 l-863 0 -12 -60z"/>
</g>
</svg>
